<?xml version="1.0" encoding="iso-8859-1"?>
<!-- Generator: Adobe Illustrator 16.0.0, SVG Export Plug-In . SVG Version: 6.00 Build 0)  -->
<!DOCTYPE svg PUBLIC "-//W3C//DTD SVG 1.1//EN" "http://www.w3.org/Graphics/SVG/1.1/DTD/svg11.dtd">
<svg xmlns="http://www.w3.org/2000/svg" version="1.1" id="Capa_1" x="0px" y="0px" width="70px" height="59px"
     viewBox="0 0 215.802 215.803" style="enable-background:new 0 0 215.802 215.803;" xml:space="preserve">
<g>
	<path d="M97.841,82.512l5.435-5.435L90.432,64.238l-5.429,5.436c-2.37-1.345-4.915-2.403-7.601-3.147v-7.67H59.244v7.67   c-2.681,0.744-5.228,1.803-7.602,3.147l-5.429-5.436L33.369,77.077l5.435,5.435c-1.351,2.373-2.403,4.927-3.153,7.613h-7.675   v18.161h7.675c0.75,2.665,1.797,5.219,3.153,7.589l-5.429,5.432l12.844,12.839l5.429-5.433c2.373,1.348,4.915,2.4,7.607,3.157   v7.695h18.158v-7.695c2.68-0.745,5.237-1.797,7.61-3.157l5.429,5.433l12.841-12.839l-5.429-5.432   c1.345-2.37,2.396-4.918,3.153-7.589h7.675V90.125h-7.675C100.25,87.438,99.191,84.885,97.841,82.512z M68.317,114.971   c-8.704,0-15.785-7.075-15.785-15.767c0-8.709,7.081-15.791,15.785-15.791c8.703,0,15.778,7.081,15.778,15.791   C84.101,107.896,77.02,114.971,68.317,114.971z M122.324,56.158h-23.2V44.053h23.2V56.158z M158.639,56.158h-23.2V44.053h23.2   V56.158z M215.802,182.33l-28.407-28.401V20.854H0v145.269l174.244-0.1l28.933,28.927L215.802,182.33z M18.152,147.94V39.006   h151.079v96.765l-7.689-7.695c4.729-9.623,3.404-21.232-4.197-28.854c-5.674-5.666-13.535-7.838-21.166-6.647l10.615,10.48   l3.068,14.458l-11.408,11.413l-14.464-3.079l-10.574-10.469c-1.182,7.619,0.999,15.469,6.649,21.113   c7.619,7.613,19.24,8.943,28.862,4.197l7.182,7.176L18.152,147.94z" fill="#4a4a4a"/>
</g>
<g>
</g>
<g>
</g>
<g>
</g>
<g>
</g>
<g>
</g>
<g>
</g>
<g>
</g>
<g>
</g>
<g>
</g>
<g>
</g>
<g>
</g>
<g>
</g>
<g>
</g>
<g>
</g>
<g>
</g>
</svg>
